<svg width="52" height="26" viewBox="0 0 52 26" fill="none" xmlns="http://www.w3.org/2000/svg">
<path d="M0.479863 -0.000211716H4.68786C5.67986 -0.000211716 6.44253 0.0744549 6.97586 0.223788C7.51986 0.362455 7.90386 0.591789 8.12786 0.911789C8.35186 1.22112 8.46386 1.65846 8.46386 2.22379V3.50379C8.46386 3.79179 8.34653 4.06379 8.11186 4.31979C7.88786 4.57579 7.6212 4.75179 7.31186 4.84779V4.92779C7.7172 4.97046 8.0852 5.14646 8.41586 5.45579C8.7572 5.75446 8.92786 6.09046 8.92786 6.46379V8.06379C8.92786 8.90646 8.59186 9.50379 7.91986 9.85579C7.24786 10.2078 6.20786 10.3838 4.79986 10.3838H0.479863V-0.000211716ZM4.68786 4.22379C5.08253 4.22379 5.37586 4.19179 5.56786 4.12779C5.75986 4.06379 5.88786 3.96246 5.95186 3.82379C6.02653 3.67446 6.06386 3.46112 6.06386 3.18379V2.67179C6.06386 2.42646 6.03186 2.24512 5.96786 2.12779C5.90386 1.99979 5.77053 1.90912 5.56786 1.85579C5.37586 1.80245 5.06653 1.77579 4.63986 1.77579H2.97586V4.22379H4.68786ZM4.75186 8.60779C5.35986 8.60779 5.79186 8.53846 6.04786 8.39979C6.30386 8.26112 6.43186 8.03712 6.43186 7.72779V6.89579C6.43186 6.51179 6.33053 6.23979 6.12786 6.07979C5.93586 5.91979 5.5892 5.83979 5.08786 5.83979H2.97586V8.60779H4.75186ZM14.4281 10.5438C11.6868 10.5438 10.3161 9.70646 10.3161 8.03179V5.24779C10.3161 4.27712 10.6254 3.57312 11.2441 3.13579C11.8734 2.69846 12.8388 2.47979 14.1401 2.47979C15.3668 2.47979 16.2628 2.69312 16.8281 3.11979C17.4041 3.53579 17.6921 4.24512 17.6921 5.24779V7.13579H12.6681V7.83979C12.6681 8.28779 12.8281 8.60779 13.1481 8.79979C13.4681 8.99179 14.0441 9.08779 14.8761 9.08779C15.6441 9.08779 16.5081 8.97579 17.4681 8.75179V10.2398C16.5188 10.4425 15.5054 10.5438 14.4281 10.5438ZM15.4681 5.80779V4.68779C15.4681 4.43179 15.3614 4.23979 15.1481 4.11179C14.9454 3.98379 14.5988 3.91979 14.1081 3.91979C13.5428 3.91979 13.1641 3.98379 12.9721 4.11179C12.7694 4.25046 12.6681 4.44246 12.6681 4.68779V5.80779H15.4681ZM21.6696 10.5438C20.9443 10.5438 20.4003 10.4798 20.0376 10.3518C19.6856 10.2131 19.4349 9.97312 19.2856 9.63179C19.1469 9.27979 19.0776 8.75712 19.0776 8.06379C19.0776 7.44512 19.1523 6.95979 19.3016 6.60779C19.4616 6.25579 19.7123 6.00512 20.0536 5.85579C20.4056 5.69579 20.8856 5.61579 21.4936 5.61579H24.1176V5.08779C24.1176 4.75712 24.0696 4.51179 23.9736 4.35179C23.8883 4.19179 23.7229 4.07979 23.4776 4.01579C23.2429 3.95179 22.8856 3.91979 22.4056 3.91979C21.7443 3.91979 20.8376 3.98379 19.6856 4.11179V2.63979C20.5283 2.53312 21.5149 2.47979 22.6456 2.47979C23.6376 2.47979 24.4003 2.55446 24.9336 2.70379C25.4776 2.85312 25.8669 3.10912 26.1016 3.47179C26.3363 3.83446 26.4536 4.36246 26.4536 5.05579V10.3838H24.1656V9.67979C23.9843 9.98912 23.7389 10.2078 23.4296 10.3358C23.1203 10.4745 22.5336 10.5438 21.6696 10.5438ZM22.5816 9.08779C23.0509 9.08779 23.3869 9.07179 23.5896 9.03979C23.7389 9.01846 23.8403 8.98646 23.8936 8.94379C23.9576 8.90112 24.0109 8.83179 24.0536 8.73579C24.0963 8.66112 24.1176 8.54912 24.1176 8.39979V6.89579H22.5176C22.1549 6.89579 21.8989 6.92246 21.7496 6.97579C21.6003 7.01846 21.4989 7.11446 21.4456 7.26379C21.3923 7.40246 21.3656 7.65312 21.3656 8.01579C21.3656 8.36779 21.3923 8.61312 21.4456 8.75179C21.4989 8.89046 21.6003 8.98112 21.7496 9.02379C21.9096 9.06646 22.1869 9.08779 22.5816 9.08779ZM31.1969 10.5438C30.2049 10.5438 29.5062 10.3678 29.1009 10.0158C28.7062 9.65312 28.5089 9.08779 28.5089 8.31979V2.63979H30.8449V7.99979C30.8449 8.29846 30.8715 8.52246 30.9249 8.67179C30.9889 8.82112 31.1062 8.92779 31.2769 8.99179C31.4582 9.05579 31.7302 9.08779 32.0929 9.08779C32.5515 9.08779 32.8875 9.06112 33.1009 9.00779C33.3142 8.94379 33.4582 8.83712 33.5329 8.68779C33.6075 8.53846 33.6449 8.30912 33.6449 7.99979V2.63979H35.9809V10.3838H33.6769V9.43979C33.5062 10.1758 32.6795 10.5438 31.1969 10.5438ZM41.8965 10.5438C41.5018 10.5438 41.1712 10.5278 40.9045 10.4958C40.6378 10.4638 40.3712 10.3998 40.1045 10.3038C39.8058 10.2078 39.5605 10.0745 39.3685 9.90379C39.1872 9.73312 39.0378 9.49846 38.9205 9.19979C38.7925 8.89046 38.7285 8.53312 38.7285 8.12779V4.07979H37.1605V2.63979H38.7285V0.399789H41.0645V2.63979H43.1925V4.07979H41.0645V7.72779C41.0645 8.10112 41.0965 8.38379 41.1605 8.57579C41.2245 8.75712 41.3472 8.89046 41.5285 8.97579C41.7098 9.05046 41.9872 9.08779 42.3605 9.08779C42.5098 9.08779 42.7872 9.06112 43.1925 9.00779V10.4638C42.6912 10.5171 42.2592 10.5438 41.8965 10.5438ZM46.7321 10.3198L43.6441 2.63979H46.1881L47.9321 8.11179L49.5161 2.63979H51.9321L47.6921 13.7118H45.3241L46.7321 10.3198ZM-0.000136673 23.8638L5.40786 16.7758H0.159863V14.9998H8.47986V16.5038L3.07186 23.5918H8.57586V25.3838H-0.000136673V23.8638ZM13.8927 25.5438C13.4127 25.5438 13.0181 25.5278 12.7087 25.4958C12.3994 25.4638 12.0687 25.3998 11.7167 25.3038C11.3327 25.1971 11.0234 25.0478 10.7887 24.8558C10.5541 24.6531 10.3567 24.3705 10.1967 24.0078C10.0367 23.6558 9.95674 23.2291 9.95674 22.7278V20.4398C9.95674 19.9278 10.0367 19.4798 10.1967 19.0958C10.3567 18.7118 10.5647 18.4131 10.8207 18.1998C11.0447 18.0185 11.3381 17.8691 11.7007 17.7518C12.0741 17.6238 12.4367 17.5438 12.7887 17.5118C13.1941 17.4905 13.5621 17.4798 13.8927 17.4798C14.3834 17.4798 14.7727 17.4958 15.0607 17.5278C15.3594 17.5491 15.6847 17.6131 16.0367 17.7198C16.4207 17.8371 16.7301 17.9971 16.9647 18.1998C17.2101 18.4025 17.4181 18.6905 17.5887 19.0638C17.7487 19.4478 17.8287 19.9065 17.8287 20.4398V22.7278C17.8287 23.2078 17.7487 23.6291 17.5887 23.9918C17.4394 24.3545 17.2421 24.6371 16.9967 24.8398C16.7834 25.0211 16.4901 25.1705 16.1167 25.2878C15.7541 25.3945 15.3967 25.4638 15.0447 25.4958C14.7247 25.5278 14.3407 25.5438 13.8927 25.5438ZM13.8927 24.0878C14.3301 24.0878 14.6607 24.0558 14.8847 23.9918C15.1087 23.9171 15.2634 23.8051 15.3487 23.6558C15.4447 23.5065 15.4927 23.2878 15.4927 22.9998V20.0718C15.4927 19.6451 15.3807 19.3465 15.1567 19.1758C14.9327 19.0051 14.5114 18.9198 13.8927 18.9198C13.2741 18.9198 12.8527 19.0051 12.6287 19.1758C12.4047 19.3465 12.2927 19.6451 12.2927 20.0718V22.9998C12.2927 23.2878 12.3354 23.5065 12.4207 23.6558C12.5167 23.8051 12.6767 23.9171 12.9007 23.9918C13.1247 24.0558 13.4554 24.0878 13.8927 24.0878ZM19.6495 17.6398H21.9535V18.5838C22.1348 17.8478 22.9615 17.4798 24.4335 17.4798C25.4255 17.4798 26.1188 17.6611 26.5135 18.0238C26.9188 18.3758 27.1215 18.9358 27.1215 19.7038V25.3838H24.7855V20.0078C24.7855 19.7091 24.7535 19.4851 24.6895 19.3358C24.6362 19.1865 24.5188 19.0798 24.3375 19.0158C24.1668 18.9518 23.9002 18.9198 23.5375 18.9198C23.0788 18.9198 22.7428 18.9518 22.5295 19.0158C22.3162 19.0691 22.1722 19.1705 22.0975 19.3198C22.0228 19.4691 21.9855 19.6985 21.9855 20.0078V25.3838H19.6495V17.6398ZM33.0531 25.5438C30.3118 25.5438 28.9411 24.7065 28.9411 23.0318V20.2478C28.9411 19.2771 29.2504 18.5731 29.8691 18.1358C30.4984 17.6985 31.4638 17.4798 32.7651 17.4798C33.9918 17.4798 34.8878 17.6931 35.4531 18.1198C36.0291 18.5358 36.3171 19.2451 36.3171 20.2478V22.1358H31.2931V22.8398C31.2931 23.2878 31.4531 23.6078 31.7731 23.7998C32.0931 23.9918 32.6691 24.0878 33.5011 24.0878C34.2691 24.0878 35.1331 23.9758 36.0931 23.7518V25.2398C35.1438 25.4425 34.1304 25.5438 33.0531 25.5438ZM34.0931 20.8078V19.6878C34.0931 19.4318 33.9864 19.2398 33.7731 19.1118C33.5704 18.9838 33.2238 18.9198 32.7331 18.9198C32.1678 18.9198 31.7891 18.9838 31.5971 19.1118C31.3944 19.2505 31.2931 19.4425 31.2931 19.6878V20.8078H34.0931Z" fill="#2B7FFF"/>
</svg>
